<svg width="156" height="16" viewBox="0 0 156 16" fill="none" xmlns="http://www.w3.org/2000/svg">
<path d="M6.69922 7.17773H10.4102V9.3457H6.69922V13.5742H4.39453V9.3457H0.664062V7.17773H4.39453V3.22266H6.69922V7.17773ZM21.6797 2.09961L15.9961 15H13.5059L19.1797 2.68555H11.8262V0.78125H21.6797V2.09961ZM31.3086 6.80664H32.7539C33.4831 6.80013 34.0592 6.61133 34.4824 6.24023C34.9121 5.86914 35.127 5.33203 35.127 4.62891C35.127 3.95182 34.9479 3.42773 34.5898 3.05664C34.2383 2.67904 33.6979 2.49023 32.9688 2.49023C32.3307 2.49023 31.8066 2.67578 31.3965 3.04688C30.9863 3.41146 30.7812 3.88997 30.7812 4.48242H28.4082C28.4082 3.75326 28.6003 3.08919 28.9844 2.49023C29.375 1.89128 29.9154 1.42578 30.6055 1.09375C31.3021 0.755208 32.0801 0.585938 32.9395 0.585938C34.3587 0.585938 35.472 0.94401 36.2793 1.66016C37.0931 2.36979 37.5 3.35938 37.5 4.62891C37.5 5.26693 37.2949 5.86914 36.8848 6.43555C36.4811 6.99544 35.957 7.41862 35.3125 7.70508C36.0938 7.97201 36.6862 8.39193 37.0898 8.96484C37.5 9.53776 37.7051 10.2214 37.7051 11.0156C37.7051 12.2917 37.2656 13.3073 36.3867 14.0625C35.5143 14.8177 34.3652 15.1953 32.9395 15.1953C31.5723 15.1953 30.4525 14.8307 29.5801 14.1016C28.7077 13.3724 28.2715 12.4023 28.2715 11.1914H30.6445C30.6445 11.8164 30.8529 12.3242 31.2695 12.7148C31.6927 13.1055 32.2591 13.3008 32.9688 13.3008C33.7044 13.3008 34.2839 13.1055 34.707 12.7148C35.1302 12.3242 35.3418 11.7578 35.3418 11.0156C35.3418 10.2669 35.1204 9.69076 34.6777 9.28711C34.235 8.88346 33.5775 8.68164 32.7051 8.68164H31.3086V6.80664ZM48.8867 4.53125C48.8867 5.22786 48.7077 5.84961 48.3496 6.39648C47.9915 6.93685 47.5033 7.36328 46.8848 7.67578C47.627 8.02083 48.1966 8.49284 48.5938 9.0918C48.9974 9.69076 49.1992 10.3678 49.1992 11.123C49.1992 12.373 48.776 13.3659 47.9297 14.1016C47.0833 14.8307 45.957 15.1953 44.5508 15.1953C43.138 15.1953 42.0052 14.8275 41.1523 14.0918C40.306 13.3561 39.8828 12.3665 39.8828 11.123C39.8828 10.3613 40.0846 9.67773 40.4883 9.07227C40.8919 8.4668 41.4583 8.0013 42.1875 7.67578C41.5755 7.36328 41.0905 6.93685 40.7324 6.39648C40.3809 5.84961 40.2051 5.22786 40.2051 4.53125C40.2051 3.32031 40.5957 2.36003 41.377 1.65039C42.1582 0.940755 43.2129 0.585938 44.541 0.585938C45.8757 0.585938 46.9336 0.940755 47.7148 1.65039C48.4961 2.36003 48.8867 3.32031 48.8867 4.53125ZM46.8262 11.0059C46.8262 10.3027 46.6146 9.73633 46.1914 9.30664C45.7747 8.87044 45.2214 8.65234 44.5312 8.65234C43.8411 8.65234 43.2878 8.86719 42.8711 9.29688C42.4609 9.72656 42.2559 10.2962 42.2559 11.0059C42.2559 11.7025 42.4577 12.2591 42.8613 12.6758C43.2715 13.0924 43.8346 13.3008 44.5508 13.3008C45.2669 13.3008 45.8236 13.099 46.2207 12.6953C46.6243 12.2917 46.8262 11.7285 46.8262 11.0059ZM46.5234 4.61914C46.5234 4.00065 46.3444 3.49284 45.9863 3.0957C45.6283 2.69206 45.1465 2.49023 44.541 2.49023C43.9355 2.49023 43.457 2.68229 43.1055 3.06641C42.7539 3.44401 42.5781 3.96159 42.5781 4.61914C42.5781 5.27018 42.7539 5.78776 43.1055 6.17188C43.4635 6.55599 43.9453 6.74805 44.5508 6.74805C45.1562 6.74805 45.6348 6.55599 45.9863 6.17188C46.3444 5.78776 46.5234 5.27018 46.5234 4.61914ZM54.043 6.80664H55.4883C56.2174 6.80013 56.7936 6.61133 57.2168 6.24023C57.6465 5.86914 57.8613 5.33203 57.8613 4.62891C57.8613 3.95182 57.6823 3.42773 57.3242 3.05664C56.9727 2.67904 56.4323 2.49023 55.7031 2.49023C55.0651 2.49023 54.541 2.67578 54.1309 3.04688C53.7207 3.41146 53.5156 3.88997 53.5156 4.48242H51.1426C51.1426 3.75326 51.3346 3.08919 51.7188 2.49023C52.1094 1.89128 52.6497 1.42578 53.3398 1.09375C54.0365 0.755208 54.8145 0.585938 55.6738 0.585938C57.0931 0.585938 58.2064 0.94401 59.0137 1.66016C59.8275 2.36979 60.2344 3.35938 60.2344 4.62891C60.2344 5.26693 60.0293 5.86914 59.6191 6.43555C59.2155 6.99544 58.6914 7.41862 58.0469 7.70508C58.8281 7.97201 59.4206 8.39193 59.8242 8.96484C60.2344 9.53776 60.4395 10.2214 60.4395 11.0156C60.4395 12.2917 60 13.3073 59.1211 14.0625C58.2487 14.8177 57.0996 15.1953 55.6738 15.1953C54.3066 15.1953 53.1868 14.8307 52.3145 14.1016C51.4421 13.3724 51.0059 12.4023 51.0059 11.1914H53.3789C53.3789 11.8164 53.5872 12.3242 54.0039 12.7148C54.4271 13.1055 54.9935 13.3008 55.7031 13.3008C56.4388 13.3008 57.0182 13.1055 57.4414 12.7148C57.8646 12.3242 58.0762 11.7578 58.0762 11.0156C58.0762 10.2669 57.8548 9.69076 57.4121 9.28711C56.9694 8.88346 56.3118 8.68164 55.4395 8.68164H54.043V6.80664ZM77.207 15H67.6465V13.3691L72.3828 8.20312C73.0664 7.44141 73.5514 6.80664 73.8379 6.29883C74.1309 5.78451 74.2773 5.27018 74.2773 4.75586C74.2773 4.07878 74.0853 3.5319 73.7012 3.11523C73.3236 2.69857 72.8125 2.49023 72.168 2.49023C71.3997 2.49023 70.804 2.72461 70.3809 3.19336C69.9577 3.66211 69.7461 4.30339 69.7461 5.11719H67.373C67.373 4.2513 67.5684 3.47331 67.959 2.7832C68.3561 2.08659 68.9193 1.54622 69.6484 1.16211C70.3841 0.777995 71.2305 0.585938 72.1875 0.585938C73.5677 0.585938 74.6549 0.934245 75.4492 1.63086C76.25 2.32096 76.6504 3.27799 76.6504 4.50195C76.6504 5.21159 76.4486 5.95703 76.0449 6.73828C75.6478 7.51302 74.9935 8.39518 74.082 9.38477L70.6055 13.1055H77.207V15ZM85.7422 9.05273C84.9479 9.89258 84.0202 10.3125 82.959 10.3125C81.709 10.3125 80.7129 9.8763 79.9707 9.00391C79.2285 8.125 78.8574 6.97266 78.8574 5.54688C78.8574 4.60938 79.0462 3.75977 79.4238 2.99805C79.8014 2.23633 80.3385 1.64388 81.0352 1.2207C81.7318 0.797526 82.5391 0.585938 83.457 0.585938C84.8893 0.585938 86.0254 1.11979 86.8652 2.1875C87.7051 3.25521 88.125 4.68424 88.125 6.47461V7.13867C88.125 9.70378 87.5456 11.6602 86.3867 13.0078C85.2279 14.3555 83.4993 15.0391 81.2012 15.0586H80.918V13.0957H81.2598C82.6595 13.0762 83.7337 12.7409 84.4824 12.0898C85.2311 11.4323 85.651 10.4199 85.7422 9.05273ZM83.457 8.45703C83.9323 8.45703 84.3783 8.32031 84.7949 8.04688C85.2116 7.77344 85.5339 7.39583 85.7617 6.91406V5.98633C85.7617 4.93815 85.5469 4.09505 85.1172 3.45703C84.6875 2.81901 84.1309 2.5 83.4473 2.5C82.7637 2.5 82.2168 2.7832 81.8066 3.34961C81.403 3.90951 81.2012 4.61914 81.2012 5.47852C81.2012 6.37044 81.4062 7.08984 81.8164 7.63672C82.2266 8.18359 82.7734 8.45703 83.457 8.45703ZM96.8066 15H94.4434V3.58398L90.957 4.77539V2.77344L96.5039 0.732422H96.8066V15ZM113.457 9.05273C112.663 9.89258 111.735 10.3125 110.674 10.3125C109.424 10.3125 108.428 9.8763 107.686 9.00391C106.943 8.125 106.572 6.97266 106.572 5.54688C106.572 4.60938 106.761 3.75977 107.139 2.99805C107.516 2.23633 108.053 1.64388 108.75 1.2207C109.447 0.797526 110.254 0.585938 111.172 0.585938C112.604 0.585938 113.74 1.11979 114.58 2.1875C115.42 3.25521 115.84 4.68424 115.84 6.47461V7.13867C115.84 9.70378 115.26 11.6602 114.102 13.0078C112.943 14.3555 111.214 15.0391 108.916 15.0586H108.633V13.0957H108.975C110.374 13.0762 111.449 12.7409 112.197 12.0898C112.946 11.4323 113.366 10.4199 113.457 9.05273ZM111.172 8.45703C111.647 8.45703 112.093 8.32031 112.51 8.04688C112.926 7.77344 113.249 7.39583 113.477 6.91406V5.98633C113.477 4.93815 113.262 4.09505 112.832 3.45703C112.402 2.81901 111.846 2.5 111.162 2.5C110.479 2.5 109.932 2.7832 109.521 3.34961C109.118 3.90951 108.916 4.61914 108.916 5.47852C108.916 6.37044 109.121 7.08984 109.531 7.63672C109.941 8.18359 110.488 8.45703 111.172 8.45703ZM127.656 15H118.096V13.3691L122.832 8.20312C123.516 7.44141 124.001 6.80664 124.287 6.29883C124.58 5.78451 124.727 5.27018 124.727 4.75586C124.727 4.07878 124.535 3.5319 124.15 3.11523C123.773 2.69857 123.262 2.49023 122.617 2.49023C121.849 2.49023 121.253 2.72461 120.83 3.19336C120.407 3.66211 120.195 4.30339 120.195 5.11719H117.822C117.822 4.2513 118.018 3.47331 118.408 2.7832C118.805 2.08659 119.368 1.54622 120.098 1.16211C120.833 0.777995 121.68 0.585938 122.637 0.585938C124.017 0.585938 125.104 0.934245 125.898 1.63086C126.699 2.32096 127.1 3.27799 127.1 4.50195C127.1 5.21159 126.898 5.95703 126.494 6.73828C126.097 7.51302 125.443 8.39518 124.531 9.38477L121.055 13.1055H127.656V15ZM143.398 4.53125C143.398 5.22786 143.219 5.84961 142.861 6.39648C142.503 6.93685 142.015 7.36328 141.396 7.67578C142.139 8.02083 142.708 8.49284 143.105 9.0918C143.509 9.69076 143.711 10.3678 143.711 11.123C143.711 12.373 143.288 13.3659 142.441 14.1016C141.595 14.8307 140.469 15.1953 139.062 15.1953C137.65 15.1953 136.517 14.8275 135.664 14.0918C134.818 13.3561 134.395 12.3665 134.395 11.123C134.395 10.3613 134.596 9.67773 135 9.07227C135.404 8.4668 135.97 8.0013 136.699 7.67578C136.087 7.36328 135.602 6.93685 135.244 6.39648C134.893 5.84961 134.717 5.22786 134.717 4.53125C134.717 3.32031 135.107 2.36003 135.889 1.65039C136.67 0.940755 137.725 0.585938 139.053 0.585938C140.387 0.585938 141.445 0.940755 142.227 1.65039C143.008 2.36003 143.398 3.32031 143.398 4.53125ZM141.338 11.0059C141.338 10.3027 141.126 9.73633 140.703 9.30664C140.286 8.87044 139.733 8.65234 139.043 8.65234C138.353 8.65234 137.799 8.86719 137.383 9.29688C136.973 9.72656 136.768 10.2962 136.768 11.0059C136.768 11.7025 136.969 12.2591 137.373 12.6758C137.783 13.0924 138.346 13.3008 139.062 13.3008C139.779 13.3008 140.335 13.099 140.732 12.6953C141.136 12.2917 141.338 11.7285 141.338 11.0059ZM141.035 4.61914C141.035 4.00065 140.856 3.49284 140.498 3.0957C140.14 2.69206 139.658 2.49023 139.053 2.49023C138.447 2.49023 137.969 2.68229 137.617 3.06641C137.266 3.44401 137.09 3.96159 137.09 4.61914C137.09 5.27018 137.266 5.78776 137.617 6.17188C137.975 6.55599 138.457 6.74805 139.062 6.74805C139.668 6.74805 140.146 6.55599 140.498 6.17188C140.856 5.78776 141.035 5.27018 141.035 4.61914ZM153.193 0.712891V2.67578H152.9C151.572 2.69531 150.511 3.0599 149.717 3.76953C148.923 4.47917 148.451 5.48503 148.301 6.78711C149.062 5.98633 150.036 5.58594 151.221 5.58594C152.477 5.58594 153.467 6.02865 154.189 6.91406C154.919 7.79948 155.283 8.94206 155.283 10.3418C155.283 11.7871 154.857 12.959 154.004 13.8574C153.158 14.7493 152.044 15.1953 150.664 15.1953C149.245 15.1953 148.092 14.6712 147.207 13.623C146.328 12.5749 145.889 11.2012 145.889 9.50195V8.69141C145.889 6.19792 146.494 4.24479 147.705 2.83203C148.923 1.41927 150.671 0.712891 152.949 0.712891H153.193ZM150.645 7.5C150.124 7.5 149.645 7.64648 149.209 7.93945C148.779 8.23242 148.464 8.62305 148.262 9.11133V9.83398C148.262 10.8887 148.483 11.7285 148.926 12.3535C149.368 12.972 149.941 13.2812 150.645 13.2812C151.348 13.2812 151.904 13.0176 152.314 12.4902C152.725 11.9629 152.93 11.2695 152.93 10.4102C152.93 9.55078 152.721 8.85091 152.305 8.31055C151.888 7.77018 151.335 7.5 150.645 7.5Z" fill="#0F2438"/>
</svg>
