<svg width="169" height="32" viewBox="0 0 169 32" fill="none" xmlns="http://www.w3.org/2000/svg">
<path d="M50.9141 21H49.1914V16.5771H44.7412V21H43.0117V11.0469H44.7412V15.1895H49.1914V11.0469H50.9141V21ZM56.0615 21.1367C55.0088 21.1367 54.1543 20.8063 53.498 20.1455C52.8464 19.4801 52.5205 18.596 52.5205 17.4932V17.2881C52.5205 16.5498 52.6618 15.8913 52.9443 15.3125C53.2314 14.7292 53.6325 14.2757 54.1475 13.9521C54.6624 13.6286 55.2367 13.4668 55.8701 13.4668C56.8773 13.4668 57.6543 13.7881 58.2012 14.4307C58.7526 15.0732 59.0283 15.9824 59.0283 17.1582V17.8281H54.1953C54.2454 18.4388 54.4482 18.9219 54.8037 19.2773C55.1637 19.6328 55.6149 19.8105 56.1572 19.8105C56.9183 19.8105 57.5381 19.5029 58.0166 18.8877L58.9121 19.7422C58.6159 20.1842 58.2194 20.5283 57.7227 20.7744C57.2305 21.016 56.6768 21.1367 56.0615 21.1367ZM55.8633 14.7998C55.4076 14.7998 55.0384 14.9593 54.7559 15.2783C54.4779 15.5973 54.3001 16.0417 54.2227 16.6113H57.3877V16.4883C57.3512 15.9323 57.2031 15.513 56.9434 15.2305C56.6836 14.9434 56.3236 14.7998 55.8633 14.7998ZM60.4502 21V13.6035H63.4512C64.4629 13.6035 65.2331 13.7812 65.7617 14.1367C66.2904 14.4876 66.5547 14.9935 66.5547 15.6543C66.5547 15.9961 66.4476 16.3037 66.2334 16.5771C66.0238 16.846 65.7116 17.0534 65.2969 17.1992C65.7799 17.2995 66.1628 17.5023 66.4453 17.8076C66.7279 18.113 66.8691 18.473 66.8691 18.8877C66.8691 19.5758 66.6139 20.0999 66.1035 20.46C65.5977 20.82 64.8685 21 63.916 21H60.4502ZM62.1113 17.8486V19.6875H63.9297C64.7819 19.6875 65.208 19.3822 65.208 18.7715C65.208 18.1562 64.7751 17.8486 63.9092 17.8486H62.1113ZM62.1113 16.6592H63.4785C64.4219 16.6592 64.8936 16.3812 64.8936 15.8252C64.8936 15.2419 64.4469 14.9411 63.5537 14.9229H62.1113V16.6592ZM71.3467 19.8105C71.7614 19.8105 72.1055 19.6898 72.3789 19.4482C72.6523 19.2067 72.7982 18.9082 72.8164 18.5527H74.3818C74.3636 19.013 74.2201 19.4437 73.9512 19.8447C73.6823 20.2412 73.3177 20.5557 72.8574 20.7881C72.3971 21.0205 71.9004 21.1367 71.3672 21.1367C70.3327 21.1367 69.5124 20.8018 68.9062 20.1318C68.3001 19.4619 67.9971 18.5368 67.9971 17.3564V17.1855C67.9971 16.0599 68.2979 15.1598 68.8994 14.4854C69.501 13.8063 70.3213 13.4668 71.3604 13.4668C72.2399 13.4668 72.9554 13.7243 73.5068 14.2393C74.0628 14.7497 74.3545 15.4219 74.3818 16.2559H72.8164C72.7982 15.832 72.6523 15.4834 72.3789 15.21C72.11 14.9365 71.766 14.7998 71.3467 14.7998C70.8089 14.7998 70.3942 14.9958 70.1025 15.3877C69.8109 15.7751 69.6628 16.3652 69.6582 17.1582V17.4248C69.6582 18.2269 69.8018 18.8262 70.0889 19.2227C70.3805 19.6146 70.7998 19.8105 71.3467 19.8105ZM78.2646 18.0742H77.4238V21H75.7627V13.6035H77.4238V16.5566H78.1553L80.1992 13.6035H82.25L79.5771 17.1445L82.4756 21H80.3154L78.2646 18.0742ZM88.0059 13.6035H89.6602V21H88.0059V16.0645L85.1074 21H83.4531V13.6035H85.1074V18.5391L88.0059 13.6035ZM96.0449 13.6035H97.6992V21H96.0449V16.0645L93.1465 21H91.4922V13.6035H93.1465V18.5391L96.0449 13.6035ZM96.8242 10.7666C96.8242 11.3408 96.6237 11.8057 96.2227 12.1611C95.8216 12.5166 95.2861 12.6943 94.6162 12.6943C93.9463 12.6943 93.4108 12.5166 93.0098 12.1611C92.6087 11.8057 92.4082 11.3408 92.4082 10.7666H93.6523C93.6523 11.0674 93.7367 11.3021 93.9053 11.4707C94.0785 11.6348 94.3154 11.7168 94.6162 11.7168C94.917 11.7168 95.1517 11.6348 95.3203 11.4707C95.4889 11.3021 95.5732 11.0674 95.5732 10.7666H96.8242ZM109.225 21H107.563V14.9434H104.679V21H103.018V13.6035H109.225V21ZM117.469 17.377C117.469 18.5208 117.209 19.4346 116.689 20.1182C116.17 20.7972 115.473 21.1367 114.598 21.1367C113.786 21.1367 113.137 20.8701 112.649 20.3369V23.8438H110.988V13.6035H112.52L112.588 14.3555C113.076 13.763 113.739 13.4668 114.577 13.4668C115.479 13.4668 116.186 13.804 116.696 14.4785C117.211 15.1484 117.469 16.0804 117.469 17.2744V17.377ZM115.814 17.2334C115.814 16.4951 115.666 15.9095 115.37 15.4766C115.078 15.0436 114.659 14.8271 114.112 14.8271C113.433 14.8271 112.946 15.1074 112.649 15.668V18.9492C112.95 19.5234 113.442 19.8105 114.126 19.8105C114.655 19.8105 115.067 19.5986 115.363 19.1748C115.664 18.7464 115.814 18.0993 115.814 17.2334ZM122.104 17.4385H118.515V16.0986H122.104V17.4385ZM129.295 14.9229H126.896V21H125.234V14.9229H122.862V13.6035H129.295V14.9229ZM130.642 23.2422L129.746 22.709C130.01 22.2943 130.19 21.932 130.286 21.6221C130.386 21.3167 130.439 21.0046 130.443 20.6855V19.3936H131.94L131.934 20.5898C131.929 21.0729 131.806 21.556 131.564 22.0391C131.327 22.5267 131.02 22.9277 130.642 23.2422ZM136.999 19.6738C137.459 19.1589 137.767 18.6712 137.922 18.2109C138.081 17.7461 138.177 17.1536 138.209 16.4336L138.305 13.6035H143.438V19.6738H144.464V23.2012H142.81V21H138.065V23.2012H136.384L136.391 19.6738H136.999ZM138.947 19.6738H141.784V15.0322H139.918L139.87 16.4473C139.806 17.8053 139.499 18.8809 138.947 19.6738ZM146.686 19.25C146.995 19.25 147.235 19.3389 147.403 19.5166C147.572 19.6898 147.656 19.9085 147.656 20.1729C147.656 20.4326 147.572 20.6491 147.403 20.8223C147.235 20.9909 146.995 21.0752 146.686 21.0752C146.389 21.0752 146.155 20.9909 145.981 20.8223C145.808 20.6536 145.722 20.4372 145.722 20.1729C145.722 19.9085 145.806 19.6898 145.975 19.5166C146.143 19.3389 146.38 19.25 146.686 19.25ZM158.56 17.4521H159.797V18.7852H158.56V21H156.898V18.7852H152.599L152.551 17.7734L156.844 11.0469H158.56V17.4521ZM154.294 17.4521H156.898V13.2959L156.775 13.5146L154.294 17.4521ZM161.342 16.0645L161.882 11.0469H167.228V12.4824H163.263L162.989 14.8613C163.45 14.597 163.969 14.4648 164.548 14.4648C165.496 14.4648 166.232 14.7679 166.756 15.374C167.285 15.9801 167.549 16.7959 167.549 17.8213C167.549 18.833 167.257 19.6396 166.674 20.2412C166.09 20.8382 165.291 21.1367 164.274 21.1367C163.363 21.1367 162.606 20.8792 162.005 20.3643C161.408 19.8447 161.084 19.1611 161.034 18.3135H162.641C162.704 18.7965 162.878 19.168 163.16 19.4277C163.443 19.6829 163.812 19.8105 164.268 19.8105C164.778 19.8105 165.174 19.6283 165.457 19.2637C165.744 18.8991 165.888 18.4023 165.888 17.7734C165.888 17.1673 165.73 16.6888 165.416 16.3379C165.102 15.9824 164.669 15.8047 164.117 15.8047C163.816 15.8047 163.561 15.8457 163.352 15.9277C163.142 16.0052 162.914 16.1602 162.668 16.3926L161.342 16.0645Z" fill="#0F2438"/>
<path d="M16 0C9.79675 0 4.75 5.04675 4.75 11.25C4.75 13.3459 5.33056 15.3913 6.42931 17.1658L15.3596 31.5568C15.5307 31.8325 15.8321 32 16.1562 32C16.1587 32 16.1611 32 16.1636 32C16.4906 31.9974 16.7926 31.8248 16.9605 31.5443L25.6632 17.0138C26.7013 15.2768 27.25 13.2837 27.25 11.25C27.25 5.04675 22.2033 0 16 0ZM24.0541 16.0511L16.142 29.2616L8.02294 16.1779C7.10838 14.7009 6.6125 12.9969 6.6125 11.25C6.6125 6.08063 10.8306 1.8625 16 1.8625C21.1694 1.8625 25.3813 6.08063 25.3813 11.25C25.3813 12.9451 24.9181 14.6055 24.0541 16.0511Z" fill="#0F2438"/>
<path d="M16 5.625C12.8984 5.625 10.375 8.14838 10.375 11.25C10.375 14.3318 12.8573 16.875 16 16.875C19.1814 16.875 21.625 14.2979 21.625 11.25C21.625 8.14838 19.1016 5.625 16 5.625ZM16 15.0125C13.9214 15.0125 12.2375 13.3229 12.2375 11.25C12.2375 9.18225 13.9323 7.4875 16 7.4875C18.0677 7.4875 19.7563 9.18225 19.7563 11.25C19.7563 13.2927 18.1115 15.0125 16 15.0125Z" fill="#0F2438"/>
</svg>
