<svg width="258" height="40" viewBox="0 0 258 40" fill="none" xmlns="http://www.w3.org/2000/svg">
<path d="M45.2656 5.04688L48.1367 12.6758L51.001 5.04688H53.2363V15H51.5137V11.7188L51.6846 7.33008L48.7451 15H47.5078L44.5752 7.33691L44.7461 11.7188V15H43.0234V5.04688H45.2656ZM56.9141 9.95508H58.541C59.1471 9.95508 59.6758 10.0599 60.127 10.2695C60.5781 10.4792 60.9199 10.7731 61.1523 11.1514C61.3893 11.5296 61.5078 11.9694 61.5078 12.4707C61.5078 13.2318 61.2389 13.8424 60.7012 14.3027C60.1634 14.763 59.4479 14.9954 58.5547 15H55.2529V7.60352H56.9141V9.95508ZM64.3994 15H62.7383V7.60352H64.3994V15ZM56.9141 11.2881V13.6738H58.5342C58.9398 13.6738 59.2588 13.5736 59.4912 13.373C59.7282 13.168 59.8467 12.8786 59.8467 12.5049C59.8467 12.1312 59.7305 11.8372 59.498 11.623C59.2702 11.4043 58.9603 11.2926 58.5684 11.2881H56.9141ZM76.3555 11.377C76.3555 12.5208 76.0957 13.4346 75.5762 14.1182C75.0566 14.7972 74.3594 15.1367 73.4844 15.1367C72.6732 15.1367 72.0238 14.8701 71.5361 14.3369V17.8438H69.875V7.60352H71.4062L71.4746 8.35547C71.9622 7.76302 72.6253 7.4668 73.4639 7.4668C74.3662 7.4668 75.0726 7.80404 75.583 8.47852C76.098 9.14844 76.3555 10.0804 76.3555 11.2744V11.377ZM74.7012 11.2334C74.7012 10.4951 74.5531 9.90951 74.2568 9.47656C73.9652 9.04362 73.5459 8.82715 72.999 8.82715C72.32 8.82715 71.8324 9.10742 71.5361 9.66797V12.9492C71.8369 13.5234 72.3291 13.8105 73.0127 13.8105C73.5413 13.8105 73.9538 13.5986 74.25 13.1748C74.5508 12.7464 74.7012 12.0993 74.7012 11.2334ZM82.1865 15C82.1136 14.8587 82.0498 14.6286 81.9951 14.3096C81.4665 14.861 80.8193 15.1367 80.0537 15.1367C79.3109 15.1367 78.7048 14.9248 78.2354 14.501C77.766 14.0771 77.5312 13.5531 77.5312 12.9287C77.5312 12.1403 77.8229 11.5365 78.4062 11.1172C78.9941 10.6934 79.8327 10.4814 80.9219 10.4814H81.9404V9.99609C81.9404 9.61328 81.8333 9.30794 81.6191 9.08008C81.4049 8.84766 81.0791 8.73145 80.6416 8.73145C80.2633 8.73145 79.9535 8.82715 79.7119 9.01855C79.4704 9.2054 79.3496 9.44466 79.3496 9.73633H77.6885C77.6885 9.33073 77.8229 8.95247 78.0918 8.60156C78.3607 8.24609 78.7253 7.9681 79.1855 7.76758C79.6504 7.56706 80.1676 7.4668 80.7373 7.4668C81.6032 7.4668 82.2936 7.68555 82.8086 8.12305C83.3236 8.55599 83.5879 9.16667 83.6016 9.95508V13.291C83.6016 13.9564 83.695 14.4873 83.8818 14.8838V15H82.1865ZM80.3613 13.8037C80.6895 13.8037 80.9971 13.724 81.2842 13.5645C81.5758 13.4049 81.7946 13.1908 81.9404 12.9219V11.5273H81.0449C80.4297 11.5273 79.9671 11.6344 79.6572 11.8486C79.3473 12.0628 79.1924 12.3659 79.1924 12.7578C79.1924 13.0768 79.2972 13.332 79.5068 13.5234C79.721 13.7103 80.0059 13.8037 80.3613 13.8037ZM88.8242 8.01367C89.7539 8.01367 90.499 8.32585 91.0596 8.9502C91.6201 9.56999 91.9004 10.4131 91.9004 11.4795V11.5615C91.9004 12.6279 91.5951 13.4915 90.9844 14.1523C90.3783 14.8132 89.5534 15.1436 88.5098 15.1436C87.4935 15.1436 86.6732 14.8063 86.0488 14.1318C85.4245 13.4574 85.1123 12.5368 85.1123 11.3701V10.8916C85.1123 9.29655 85.3949 8.03418 85.96 7.10449C86.5251 6.1748 87.3682 5.59375 88.4893 5.36133C89.1182 5.23372 89.5238 5.09928 89.7061 4.95801C89.8929 4.81217 89.9863 4.61621 89.9863 4.37012H91.3262C91.3262 4.8304 91.251 5.2041 91.1006 5.49121C90.9502 5.77832 90.7201 6.01302 90.4102 6.19531C90.1003 6.37305 89.5671 6.54167 88.8105 6.70117C88.1178 6.84701 87.5892 7.10677 87.2246 7.48047C86.8646 7.85417 86.623 8.37142 86.5 9.03223C87.1608 8.35319 87.9355 8.01367 88.8242 8.01367ZM88.4961 9.34668C87.9583 9.34668 87.5368 9.52897 87.2314 9.89355C86.9261 10.2536 86.7734 10.8096 86.7734 11.5615C86.7734 12.2725 86.9238 12.8262 87.2246 13.2227C87.5254 13.6191 87.9538 13.8174 88.5098 13.8174C89.0612 13.8174 89.4873 13.6191 89.7881 13.2227C90.0934 12.8216 90.2461 12.2201 90.2461 11.418C90.2461 10.7799 90.0934 10.2764 89.7881 9.90723C89.4873 9.53353 89.0566 9.34668 88.4961 9.34668ZM92.8916 11.2334C92.8916 10.5088 93.0352 9.8571 93.3223 9.27832C93.6094 8.69499 94.0127 8.24837 94.5322 7.93848C95.0518 7.62402 95.6488 7.4668 96.3232 7.4668C97.3213 7.4668 98.1302 7.78809 98.75 8.43066C99.3743 9.07324 99.7116 9.92546 99.7617 10.9873L99.7686 11.377C99.7686 12.1061 99.6273 12.7578 99.3447 13.332C99.0667 13.9062 98.6657 14.3506 98.1416 14.665C97.6221 14.9795 97.0205 15.1367 96.3369 15.1367C95.2933 15.1367 94.457 14.7904 93.8281 14.0977C93.2038 13.4004 92.8916 12.473 92.8916 11.3154V11.2334ZM94.5527 11.377C94.5527 12.138 94.71 12.735 95.0244 13.168C95.3389 13.5964 95.7764 13.8105 96.3369 13.8105C96.8975 13.8105 97.3327 13.5918 97.6426 13.1543C97.957 12.7168 98.1143 12.0765 98.1143 11.2334C98.1143 10.486 97.9525 9.89355 97.6289 9.45605C97.3099 9.01855 96.8747 8.7998 96.3232 8.7998C95.7809 8.7998 95.3503 9.01628 95.0312 9.44922C94.7122 9.8776 94.5527 10.5202 94.5527 11.377ZM106.789 8.92285H104.39V15H102.729V8.92285H100.356V7.60352H106.789V8.92285ZM112.21 15C112.137 14.8587 112.073 14.6286 112.019 14.3096C111.49 14.861 110.843 15.1367 110.077 15.1367C109.334 15.1367 108.728 14.9248 108.259 14.501C107.789 14.0771 107.555 13.5531 107.555 12.9287C107.555 12.1403 107.846 11.5365 108.43 11.1172C109.018 10.6934 109.856 10.4814 110.945 10.4814H111.964V9.99609C111.964 9.61328 111.857 9.30794 111.643 9.08008C111.428 8.84766 111.103 8.73145 110.665 8.73145C110.287 8.73145 109.977 8.82715 109.735 9.01855C109.494 9.2054 109.373 9.44466 109.373 9.73633H107.712C107.712 9.33073 107.846 8.95247 108.115 8.60156C108.384 8.24609 108.749 7.9681 109.209 7.76758C109.674 7.56706 110.191 7.4668 110.761 7.4668C111.627 7.4668 112.317 7.68555 112.832 8.12305C113.347 8.55599 113.611 9.16667 113.625 9.95508V13.291C113.625 13.9564 113.718 14.4873 113.905 14.8838V15H112.21ZM110.385 13.8037C110.713 13.8037 111.021 13.724 111.308 13.5645C111.599 13.4049 111.818 13.1908 111.964 12.9219V11.5273H111.068C110.453 11.5273 109.991 11.6344 109.681 11.8486C109.371 12.0628 109.216 12.3659 109.216 12.7578C109.216 13.0768 109.321 13.332 109.53 13.5234C109.744 13.7103 110.029 13.8037 110.385 13.8037ZM118.622 15.1367C117.569 15.1367 116.715 14.8063 116.059 14.1455C115.407 13.4801 115.081 12.596 115.081 11.4932V11.2881C115.081 10.5498 115.222 9.89128 115.505 9.3125C115.792 8.72917 116.193 8.27572 116.708 7.95215C117.223 7.62858 117.797 7.4668 118.431 7.4668C119.438 7.4668 120.215 7.78809 120.762 8.43066C121.313 9.07324 121.589 9.98242 121.589 11.1582V11.8281H116.756C116.806 12.4388 117.009 12.9219 117.364 13.2773C117.724 13.6328 118.175 13.8105 118.718 13.8105C119.479 13.8105 120.099 13.5029 120.577 12.8877L121.473 13.7422C121.176 14.1842 120.78 14.5283 120.283 14.7744C119.791 15.016 119.237 15.1367 118.622 15.1367ZM118.424 8.7998C117.968 8.7998 117.599 8.95931 117.316 9.27832C117.038 9.59733 116.861 10.0417 116.783 10.6113H119.948V10.4883C119.912 9.93229 119.764 9.51302 119.504 9.23047C119.244 8.94336 118.884 8.7998 118.424 8.7998ZM127.276 12.9561L129.464 7.60352H131.542V15H129.881V10.1055L127.844 15H126.716L124.672 10.0781V15H123.011V7.60352H125.103L127.276 12.9561ZM134.413 13.25C134.723 13.25 134.962 13.3389 135.131 13.5166C135.299 13.6898 135.384 13.9085 135.384 14.1729C135.384 14.4326 135.299 14.6491 135.131 14.8223C134.962 14.9909 134.723 15.0752 134.413 15.0752C134.117 15.0752 133.882 14.9909 133.709 14.8223C133.536 14.6536 133.449 14.4372 133.449 14.1729C133.449 13.9085 133.534 13.6898 133.702 13.5166C133.871 13.3389 134.108 13.25 134.413 13.25ZM134.413 7.44629C134.723 7.44629 134.962 7.53516 135.131 7.71289C135.299 7.88607 135.384 8.10482 135.384 8.36914C135.384 8.62891 135.299 8.84538 135.131 9.01855C134.962 9.18717 134.723 9.27148 134.413 9.27148C134.117 9.27148 133.882 9.18717 133.709 9.01855C133.536 8.84993 133.449 8.63346 133.449 8.36914C133.449 8.10482 133.534 7.88607 133.702 7.71289C133.871 7.53516 134.108 7.44629 134.413 7.44629ZM144.1 8.01367C145.029 8.01367 145.774 8.32585 146.335 8.9502C146.896 9.56999 147.176 10.4131 147.176 11.4795V11.5615C147.176 12.6279 146.87 13.4915 146.26 14.1523C145.654 14.8132 144.829 15.1436 143.785 15.1436C142.769 15.1436 141.949 14.8063 141.324 14.1318C140.7 13.4574 140.388 12.5368 140.388 11.3701V10.8916C140.388 9.29655 140.67 8.03418 141.235 7.10449C141.8 6.1748 142.644 5.59375 143.765 5.36133C144.394 5.23372 144.799 5.09928 144.981 4.95801C145.168 4.81217 145.262 4.61621 145.262 4.37012H146.602C146.602 4.8304 146.526 5.2041 146.376 5.49121C146.226 5.77832 145.995 6.01302 145.686 6.19531C145.376 6.37305 144.842 6.54167 144.086 6.70117C143.393 6.84701 142.865 7.10677 142.5 7.48047C142.14 7.85417 141.898 8.37142 141.775 9.03223C142.436 8.35319 143.211 8.01367 144.1 8.01367ZM143.771 9.34668C143.234 9.34668 142.812 9.52897 142.507 9.89355C142.201 10.2536 142.049 10.8096 142.049 11.5615C142.049 12.2725 142.199 12.8262 142.5 13.2227C142.801 13.6191 143.229 13.8174 143.785 13.8174C144.337 13.8174 144.763 13.6191 145.063 13.2227C145.369 12.8216 145.521 12.2201 145.521 11.418C145.521 10.7799 145.369 10.2764 145.063 9.90723C144.763 9.53353 144.332 9.34668 143.771 9.34668ZM151.065 12.6211L152.569 7.60352H154.34L151.4 16.1211C150.949 17.3652 150.184 17.9873 149.104 17.9873C148.862 17.9873 148.595 17.9463 148.304 17.8643V16.5791L148.618 16.5996C149.037 16.5996 149.352 16.5221 149.562 16.3672C149.776 16.2168 149.944 15.9616 150.067 15.6016L150.307 14.9658L147.709 7.60352H149.5L151.065 12.6211ZM154.948 13.6738C155.409 13.1589 155.716 12.6712 155.871 12.2109C156.031 11.7461 156.126 11.1536 156.158 10.4336L156.254 7.60352H161.388V13.6738H162.413V17.2012H160.759V15H156.015V17.2012H154.333L154.34 13.6738H154.948ZM156.896 13.6738H159.733V9.03223H157.867L157.819 10.4473C157.756 11.8053 157.448 12.8809 156.896 13.6738ZM169.741 15H168.08V12.0127H165.202V15H163.541V7.60352H165.202V10.6865H168.08V7.60352H169.741V15ZM176.133 7.60352H177.787V15H176.133V10.0645L173.234 15H171.58V7.60352H173.234V12.5391L176.133 7.60352ZM186.264 11.4385H182.675V10.0986H186.264V11.4385ZM195.725 10.8369C195.169 11.4248 194.519 11.7188 193.776 11.7188C192.901 11.7188 192.204 11.4134 191.685 10.8027C191.165 10.1875 190.905 9.38086 190.905 8.38281C190.905 7.72656 191.037 7.13184 191.302 6.59863C191.566 6.06543 191.942 5.65072 192.43 5.35449C192.917 5.05827 193.482 4.91016 194.125 4.91016C195.128 4.91016 195.923 5.28385 196.511 6.03125C197.099 6.77865 197.393 7.77897 197.393 9.03223V9.49707C197.393 11.2926 196.987 12.6621 196.176 13.6055C195.365 14.5488 194.155 15.0273 192.546 15.041H192.348V13.667H192.587C193.567 13.6533 194.319 13.4186 194.843 12.9629C195.367 12.5026 195.661 11.7939 195.725 10.8369ZM194.125 10.4199C194.458 10.4199 194.77 10.3242 195.062 10.1328C195.353 9.94141 195.579 9.67708 195.738 9.33984V8.69043C195.738 7.95671 195.588 7.36654 195.287 6.91992C194.986 6.47331 194.597 6.25 194.118 6.25C193.64 6.25 193.257 6.44824 192.97 6.84473C192.687 7.23665 192.546 7.7334 192.546 8.33496C192.546 8.95931 192.689 9.46289 192.977 9.8457C193.264 10.2285 193.646 10.4199 194.125 10.4199ZM200.079 13.25C200.389 13.25 200.628 13.3389 200.797 13.5166C200.965 13.6898 201.05 13.9085 201.05 14.1729C201.05 14.4326 200.965 14.6491 200.797 14.8223C200.628 14.9909 200.389 15.0752 200.079 15.0752C199.783 15.0752 199.548 14.9909 199.375 14.8223C199.202 14.6536 199.115 14.4372 199.115 14.1729C199.115 13.9085 199.2 13.6898 199.368 13.5166C199.537 13.3389 199.774 13.25 200.079 13.25ZM200.079 7.44629C200.389 7.44629 200.628 7.53516 200.797 7.71289C200.965 7.88607 201.05 8.10482 201.05 8.36914C201.05 8.62891 200.965 8.84538 200.797 9.01855C200.628 9.18717 200.389 9.27148 200.079 9.27148C199.783 9.27148 199.548 9.18717 199.375 9.01855C199.202 8.84993 199.115 8.63346 199.115 8.36914C199.115 8.10482 199.2 7.88607 199.368 7.71289C199.537 7.53516 199.774 7.44629 200.079 7.44629ZM209.178 10.8096C209.178 12.2406 208.909 13.3206 208.371 14.0498C207.838 14.7744 207.024 15.1367 205.931 15.1367C204.855 15.1367 204.044 14.7835 203.497 14.0771C202.955 13.3662 202.677 12.3158 202.663 10.9258V9.20312C202.663 7.77214 202.93 6.69889 203.463 5.9834C204.001 5.2679 204.819 4.91016 205.917 4.91016C207.006 4.91016 207.817 5.25879 208.351 5.95605C208.888 6.65332 209.164 7.69694 209.178 9.08691V10.8096ZM207.517 8.9502C207.517 8.01595 207.389 7.33236 207.134 6.89941C206.879 6.46191 206.473 6.24316 205.917 6.24316C205.375 6.24316 204.976 6.45052 204.721 6.86523C204.465 7.27539 204.331 7.91797 204.317 8.79297V11.0488C204.317 11.9785 204.447 12.6712 204.707 13.127C204.967 13.5827 205.375 13.8105 205.931 13.8105C206.464 13.8105 206.858 13.6009 207.113 13.1816C207.368 12.7578 207.503 12.097 207.517 11.1992V8.9502ZM217.135 10.8096C217.135 12.2406 216.866 13.3206 216.328 14.0498C215.795 14.7744 214.981 15.1367 213.888 15.1367C212.812 15.1367 212.001 14.7835 211.454 14.0771C210.912 13.3662 210.634 12.3158 210.62 10.9258V9.20312C210.62 7.77214 210.887 6.69889 211.42 5.9834C211.958 5.2679 212.776 4.91016 213.874 4.91016C214.963 4.91016 215.774 5.25879 216.308 5.95605C216.845 6.65332 217.121 7.69694 217.135 9.08691V10.8096ZM215.474 8.9502C215.474 8.01595 215.346 7.33236 215.091 6.89941C214.836 6.46191 214.43 6.24316 213.874 6.24316C213.332 6.24316 212.933 6.45052 212.678 6.86523C212.423 7.27539 212.288 7.91797 212.274 8.79297V11.0488C212.274 11.9785 212.404 12.6712 212.664 13.127C212.924 13.5827 213.332 13.8105 213.888 13.8105C214.421 13.8105 214.815 13.6009 215.07 13.1816C215.326 12.7578 215.46 12.097 215.474 11.1992V8.9502ZM221.934 11.4385H218.345V10.0986H221.934V11.4385ZM229.891 15H223.198V13.8584L226.514 10.2422C226.992 9.70898 227.332 9.26465 227.532 8.90918C227.737 8.54915 227.84 8.18913 227.84 7.8291C227.84 7.35514 227.705 6.97233 227.437 6.68066C227.172 6.389 226.814 6.24316 226.363 6.24316C225.826 6.24316 225.409 6.40723 225.112 6.73535C224.816 7.06348 224.668 7.51237 224.668 8.08203H223.007C223.007 7.47591 223.144 6.93132 223.417 6.44824C223.695 5.96061 224.089 5.58236 224.6 5.31348C225.115 5.0446 225.707 4.91016 226.377 4.91016C227.343 4.91016 228.104 5.15397 228.66 5.6416C229.221 6.12467 229.501 6.7946 229.501 7.65137C229.501 8.14811 229.36 8.66992 229.077 9.2168C228.799 9.75911 228.341 10.3766 227.703 11.0693L225.27 13.6738H229.891V15ZM235.653 15H233.999V7.00879L231.559 7.84277V6.44141L235.441 5.0127H235.653V15ZM240.22 13.25C240.53 13.25 240.769 13.3389 240.938 13.5166C241.106 13.6898 241.19 13.9085 241.19 14.1729C241.19 14.4326 241.106 14.6491 240.938 14.8223C240.769 14.9909 240.53 15.0752 240.22 15.0752C239.924 15.0752 239.689 14.9909 239.516 14.8223C239.342 14.6536 239.256 14.4372 239.256 14.1729C239.256 13.9085 239.34 13.6898 239.509 13.5166C239.677 13.3389 239.914 13.25 240.22 13.25ZM240.22 7.44629C240.53 7.44629 240.769 7.53516 240.938 7.71289C241.106 7.88607 241.19 8.10482 241.19 8.36914C241.19 8.62891 241.106 8.84538 240.938 9.01855C240.769 9.18717 240.53 9.27148 240.22 9.27148C239.924 9.27148 239.689 9.18717 239.516 9.01855C239.342 8.84993 239.256 8.63346 239.256 8.36914C239.256 8.10482 239.34 7.88607 239.509 7.71289C239.677 7.53516 239.914 7.44629 240.22 7.44629ZM249.318 10.8096C249.318 12.2406 249.049 13.3206 248.512 14.0498C247.979 14.7744 247.165 15.1367 246.071 15.1367C244.996 15.1367 244.185 14.7835 243.638 14.0771C243.095 13.3662 242.817 12.3158 242.804 10.9258V9.20312C242.804 7.77214 243.07 6.69889 243.604 5.9834C244.141 5.2679 244.959 4.91016 246.058 4.91016C247.147 4.91016 247.958 5.25879 248.491 5.95605C249.029 6.65332 249.305 7.69694 249.318 9.08691V10.8096ZM247.657 8.9502C247.657 8.01595 247.53 7.33236 247.274 6.89941C247.019 6.46191 246.614 6.24316 246.058 6.24316C245.515 6.24316 245.117 6.45052 244.861 6.86523C244.606 7.27539 244.472 7.91797 244.458 8.79297V11.0488C244.458 11.9785 244.588 12.6712 244.848 13.127C245.107 13.5827 245.515 13.8105 246.071 13.8105C246.604 13.8105 246.999 13.6009 247.254 13.1816C247.509 12.7578 247.644 12.097 247.657 11.1992V8.9502ZM257.275 10.8096C257.275 12.2406 257.007 13.3206 256.469 14.0498C255.936 14.7744 255.122 15.1367 254.028 15.1367C252.953 15.1367 252.142 14.7835 251.595 14.0771C251.052 13.3662 250.774 12.3158 250.761 10.9258V9.20312C250.761 7.77214 251.027 6.69889 251.561 5.9834C252.098 5.2679 252.916 4.91016 254.015 4.91016C255.104 4.91016 255.915 5.25879 256.448 5.95605C256.986 6.65332 257.262 7.69694 257.275 9.08691V10.8096ZM255.614 8.9502C255.614 8.01595 255.487 7.33236 255.231 6.89941C254.976 6.46191 254.571 6.24316 254.015 6.24316C253.472 6.24316 253.074 6.45052 252.818 6.86523C252.563 7.27539 252.429 7.91797 252.415 8.79297V11.0488C252.415 11.9785 252.545 12.6712 252.805 13.127C253.064 13.5827 253.472 13.8105 254.028 13.8105C254.562 13.8105 254.956 13.6009 255.211 13.1816C255.466 12.7578 255.601 12.097 255.614 11.1992V8.9502ZM155.536 33.8105C155.951 33.8105 156.295 33.6898 156.568 33.4482C156.842 33.2067 156.988 32.9082 157.006 32.5527H158.571C158.553 33.013 158.41 33.4437 158.141 33.8447C157.872 34.2412 157.507 34.5557 157.047 34.7881C156.587 35.0205 156.09 35.1367 155.557 35.1367C154.522 35.1367 153.702 34.8018 153.096 34.1318C152.49 33.4619 152.187 32.5368 152.187 31.3564V31.1855C152.187 30.0599 152.487 29.1598 153.089 28.4854C153.69 27.8063 154.511 27.4668 155.55 27.4668C156.429 27.4668 157.145 27.7243 157.696 28.2393C158.252 28.7497 158.544 29.4219 158.571 30.2559H157.006C156.988 29.832 156.842 29.4834 156.568 29.21C156.299 28.9365 155.955 28.7998 155.536 28.7998C154.998 28.7998 154.584 28.9958 154.292 29.3877C154 29.7751 153.852 30.3652 153.848 31.1582V31.4248C153.848 32.2269 153.991 32.8262 154.278 33.2227C154.57 33.6146 154.989 33.8105 155.536 33.8105ZM163.309 28.0137C164.238 28.0137 164.983 28.3258 165.544 28.9502C166.104 29.57 166.385 30.4131 166.385 31.4795V31.5615C166.385 32.6279 166.079 33.4915 165.469 34.1523C164.863 34.8132 164.038 35.1436 162.994 35.1436C161.978 35.1436 161.158 34.8063 160.533 34.1318C159.909 33.4574 159.597 32.5368 159.597 31.3701V30.8916C159.597 29.2965 159.879 28.0342 160.444 27.1045C161.009 26.1748 161.853 25.5938 162.974 25.3613C163.603 25.2337 164.008 25.0993 164.19 24.958C164.377 24.8122 164.471 24.6162 164.471 24.3701H165.811C165.811 24.8304 165.735 25.2041 165.585 25.4912C165.435 25.7783 165.204 26.013 164.895 26.1953C164.585 26.373 164.051 26.5417 163.295 26.7012C162.602 26.847 162.074 27.1068 161.709 27.4805C161.349 27.8542 161.107 28.3714 160.984 29.0322C161.645 28.3532 162.42 28.0137 163.309 28.0137ZM162.98 29.3467C162.443 29.3467 162.021 29.529 161.716 29.8936C161.41 30.2536 161.258 30.8096 161.258 31.5615C161.258 32.2725 161.408 32.8262 161.709 33.2227C162.01 33.6191 162.438 33.8174 162.994 33.8174C163.546 33.8174 163.972 33.6191 164.272 33.2227C164.578 32.8216 164.73 32.2201 164.73 31.418C164.73 30.7799 164.578 30.2764 164.272 29.9072C163.972 29.5335 163.541 29.3467 162.98 29.3467ZM168.723 33.25C169.033 33.25 169.272 33.3389 169.44 33.5166C169.609 33.6898 169.693 33.9085 169.693 34.1729C169.693 34.4326 169.609 34.6491 169.44 34.8223C169.272 34.9909 169.033 35.0752 168.723 35.0752C168.426 35.0752 168.192 34.9909 168.019 34.8223C167.845 34.6536 167.759 34.4372 167.759 34.1729C167.759 33.9085 167.843 33.6898 168.012 33.5166C168.18 33.3389 168.417 33.25 168.723 33.25ZM178.307 31.4385H174.718V30.0986H178.307V31.4385ZM187.556 35H185.901V27.0088L183.461 27.8428V26.4414L187.344 25.0127H187.556V35ZM197.502 30.8096C197.502 32.2406 197.233 33.3206 196.695 34.0498C196.162 34.7744 195.349 35.1367 194.255 35.1367C193.179 35.1367 192.368 34.7835 191.821 34.0771C191.279 33.3662 191.001 32.3158 190.987 30.9258V29.2031C190.987 27.7721 191.254 26.6989 191.787 25.9834C192.325 25.2679 193.143 24.9102 194.241 24.9102C195.33 24.9102 196.142 25.2588 196.675 25.9561C197.213 26.6533 197.488 27.6969 197.502 29.0869V30.8096ZM195.841 28.9502C195.841 28.016 195.713 27.3324 195.458 26.8994C195.203 26.4619 194.797 26.2432 194.241 26.2432C193.699 26.2432 193.3 26.4505 193.045 26.8652C192.79 27.2754 192.655 27.918 192.642 28.793V31.0488C192.642 31.9785 192.771 32.6712 193.031 33.127C193.291 33.5827 193.699 33.8105 194.255 33.8105C194.788 33.8105 195.182 33.6009 195.438 33.1816C195.693 32.7578 195.827 32.097 195.841 31.1992V28.9502ZM200.079 33.25C200.389 33.25 200.628 33.3389 200.797 33.5166C200.965 33.6898 201.05 33.9085 201.05 34.1729C201.05 34.4326 200.965 34.6491 200.797 34.8223C200.628 34.9909 200.389 35.0752 200.079 35.0752C199.783 35.0752 199.548 34.9909 199.375 34.8223C199.202 34.6536 199.115 34.4372 199.115 34.1729C199.115 33.9085 199.2 33.6898 199.368 33.5166C199.537 33.3389 199.774 33.25 200.079 33.25ZM200.079 27.4463C200.389 27.4463 200.628 27.5352 200.797 27.7129C200.965 27.8861 201.05 28.1048 201.05 28.3691C201.05 28.6289 200.965 28.8454 200.797 29.0186C200.628 29.1872 200.389 29.2715 200.079 29.2715C199.783 29.2715 199.548 29.1872 199.375 29.0186C199.202 28.8499 199.115 28.6335 199.115 28.3691C199.115 28.1048 199.2 27.8861 199.368 27.7129C199.537 27.5352 199.774 27.4463 200.079 27.4463ZM209.178 30.8096C209.178 32.2406 208.909 33.3206 208.371 34.0498C207.838 34.7744 207.024 35.1367 205.931 35.1367C204.855 35.1367 204.044 34.7835 203.497 34.0771C202.955 33.3662 202.677 32.3158 202.663 30.9258V29.2031C202.663 27.7721 202.93 26.6989 203.463 25.9834C204.001 25.2679 204.819 24.9102 205.917 24.9102C207.006 24.9102 207.817 25.2588 208.351 25.9561C208.888 26.6533 209.164 27.6969 209.178 29.0869V30.8096ZM207.517 28.9502C207.517 28.016 207.389 27.3324 207.134 26.8994C206.879 26.4619 206.473 26.2432 205.917 26.2432C205.375 26.2432 204.976 26.4505 204.721 26.8652C204.465 27.2754 204.331 27.918 204.317 28.793V31.0488C204.317 31.9785 204.447 32.6712 204.707 33.127C204.967 33.5827 205.375 33.8105 205.931 33.8105C206.464 33.8105 206.858 33.6009 207.113 33.1816C207.368 32.7578 207.503 32.097 207.517 31.1992V28.9502ZM217.135 30.8096C217.135 32.2406 216.866 33.3206 216.328 34.0498C215.795 34.7744 214.981 35.1367 213.888 35.1367C212.812 35.1367 212.001 34.7835 211.454 34.0771C210.912 33.3662 210.634 32.3158 210.62 30.9258V29.2031C210.62 27.7721 210.887 26.6989 211.42 25.9834C211.958 25.2679 212.776 24.9102 213.874 24.9102C214.963 24.9102 215.774 25.2588 216.308 25.9561C216.845 26.6533 217.121 27.6969 217.135 29.0869V30.8096ZM215.474 28.9502C215.474 28.016 215.346 27.3324 215.091 26.8994C214.836 26.4619 214.43 26.2432 213.874 26.2432C213.332 26.2432 212.933 26.4505 212.678 26.8652C212.423 27.2754 212.288 27.918 212.274 28.793V31.0488C212.274 31.9785 212.404 32.6712 212.664 33.127C212.924 33.5827 213.332 33.8105 213.888 33.8105C214.421 33.8105 214.815 33.6009 215.07 33.1816C215.326 32.7578 215.46 32.097 215.474 31.1992V28.9502ZM221.934 31.4385H218.345V30.0986H221.934V31.4385ZM227.696 35H226.042V27.0088L223.602 27.8428V26.4414L227.484 25.0127H227.696V35ZM231.6 30.0645L232.14 25.0469H237.485V26.4824H233.521L233.247 28.8613C233.707 28.597 234.227 28.4648 234.806 28.4648C235.754 28.4648 236.49 28.7679 237.014 29.374C237.542 29.9801 237.807 30.7959 237.807 31.8213C237.807 32.833 237.515 33.6396 236.932 34.2412C236.348 34.8382 235.549 35.1367 234.532 35.1367C233.621 35.1367 232.864 34.8792 232.263 34.3643C231.666 33.8447 231.342 33.1611 231.292 32.3135H232.898C232.962 32.7965 233.135 33.168 233.418 33.4277C233.701 33.6829 234.07 33.8105 234.525 33.8105C235.036 33.8105 235.432 33.6283 235.715 33.2637C236.002 32.8991 236.146 32.4023 236.146 31.7734C236.146 31.1673 235.988 30.6888 235.674 30.3379C235.359 29.9824 234.926 29.8047 234.375 29.8047C234.074 29.8047 233.819 29.8457 233.609 29.9277C233.4 30.0052 233.172 30.1602 232.926 30.3926L231.6 30.0645ZM240.22 33.25C240.53 33.25 240.769 33.3389 240.938 33.5166C241.106 33.6898 241.19 33.9085 241.19 34.1729C241.19 34.4326 241.106 34.6491 240.938 34.8223C240.769 34.9909 240.53 35.0752 240.22 35.0752C239.924 35.0752 239.689 34.9909 239.516 34.8223C239.342 34.6536 239.256 34.4372 239.256 34.1729C239.256 33.9085 239.34 33.6898 239.509 33.5166C239.677 33.3389 239.914 33.25 240.22 33.25ZM240.22 27.4463C240.53 27.4463 240.769 27.5352 240.938 27.7129C241.106 27.8861 241.19 28.1048 241.19 28.3691C241.19 28.6289 241.106 28.8454 240.938 29.0186C240.769 29.1872 240.53 29.2715 240.22 29.2715C239.924 29.2715 239.689 29.1872 239.516 29.0186C239.342 28.8499 239.256 28.6335 239.256 28.3691C239.256 28.1048 239.34 27.8861 239.509 27.7129C239.677 27.5352 239.914 27.4463 240.22 27.4463ZM249.318 30.8096C249.318 32.2406 249.049 33.3206 248.512 34.0498C247.979 34.7744 247.165 35.1367 246.071 35.1367C244.996 35.1367 244.185 34.7835 243.638 34.0771C243.095 33.3662 242.817 32.3158 242.804 30.9258V29.2031C242.804 27.7721 243.07 26.6989 243.604 25.9834C244.141 25.2679 244.959 24.9102 246.058 24.9102C247.147 24.9102 247.958 25.2588 248.491 25.9561C249.029 26.6533 249.305 27.6969 249.318 29.0869V30.8096ZM247.657 28.9502C247.657 28.016 247.53 27.3324 247.274 26.8994C247.019 26.4619 246.614 26.2432 246.058 26.2432C245.515 26.2432 245.117 26.4505 244.861 26.8652C244.606 27.2754 244.472 27.918 244.458 28.793V31.0488C244.458 31.9785 244.588 32.6712 244.848 33.127C245.107 33.5827 245.515 33.8105 246.071 33.8105C246.604 33.8105 246.999 33.6009 247.254 33.1816C247.509 32.7578 247.644 32.097 247.657 31.1992V28.9502ZM257.275 30.8096C257.275 32.2406 257.007 33.3206 256.469 34.0498C255.936 34.7744 255.122 35.1367 254.028 35.1367C252.953 35.1367 252.142 34.7835 251.595 34.0771C251.052 33.3662 250.774 32.3158 250.761 30.9258V29.2031C250.761 27.7721 251.027 26.6989 251.561 25.9834C252.098 25.2679 252.916 24.9102 254.015 24.9102C255.104 24.9102 255.915 25.2588 256.448 25.9561C256.986 26.6533 257.262 27.6969 257.275 29.0869V30.8096ZM255.614 28.9502C255.614 28.016 255.487 27.3324 255.231 26.8994C254.976 26.4619 254.571 26.2432 254.015 26.2432C253.472 26.2432 253.074 26.4505 252.818 26.8652C252.563 27.2754 252.429 27.918 252.415 28.793V31.0488C252.415 31.9785 252.545 32.6712 252.805 33.127C253.064 33.5827 253.472 33.8105 254.028 33.8105C254.562 33.8105 254.956 33.6009 255.211 33.1816C255.466 32.7578 255.601 32.097 255.614 31.1992V28.9502Z" fill="#0F2438"/>
<path d="M16 0C7.16343 0 0 7.16343 0 16C0 24.8365 7.16343 31.9999 16 31.9999C24.8365 31.9999 31.9999 24.8365 31.9999 16C31.9906 7.16738 24.8326 0.00944196 16 0ZM16 29.7142C8.42578 29.7142 2.28569 23.5742 2.28569 16C2.28569 8.42578 8.42578 2.28569 16 2.28569C23.5742 2.28569 29.7142 8.42578 29.7142 16C29.7061 23.5708 23.5708 29.7061 16 29.7142Z" fill="#0F2438"/>
<path d="M16 5.71436C15.3688 5.71436 14.8571 6.22603 14.8571 6.85723V14.8573H6.85714C6.22594 14.8573 5.71426 15.3689 5.71426 16.0001C5.71426 16.6313 6.22594 17.1429 6.85714 17.1429H16C16.6312 17.1429 17.1428 16.6313 17.1428 16.0001V6.85723C17.1428 6.22603 16.6312 5.71436 16 5.71436Z" fill="#0F2438"/>
</svg>
