<svg width="204" height="30" viewBox="0 0 204 30" fill="none" xmlns="http://www.w3.org/2000/svg">
<rect width="204" height="30" rx="2" fill="#E1EFD0"/>
<path d="M35.7575 19C35.6695 19 35.6015 18.976 35.5535 18.928C35.5055 18.872 35.4815 18.804 35.4815 18.724V10.888C35.4815 10.8 35.5055 10.732 35.5535 10.684C35.6015 10.628 35.6695 10.6 35.7575 10.6H36.3695C36.4575 10.6 36.5255 10.628 36.5735 10.684C36.6295 10.732 36.6575 10.8 36.6575 10.888V14.2H40.7855V10.888C40.7855 10.8 40.8095 10.732 40.8575 10.684C40.9135 10.628 40.9815 10.6 41.0615 10.6H41.6735C41.7615 10.6 41.8295 10.628 41.8775 10.684C41.9335 10.732 41.9615 10.8 41.9615 10.888V18.724C41.9615 18.804 41.9335 18.872 41.8775 18.928C41.8295 18.976 41.7615 19 41.6735 19H41.0615C40.9815 19 40.9135 18.976 40.8575 18.928C40.8095 18.872 40.7855 18.804 40.7855 18.724V15.28H36.6575V18.724C36.6575 18.804 36.6295 18.872 36.5735 18.928C36.5255 18.976 36.4575 19 36.3695 19H35.7575ZM45.6319 19.12C45.2319 19.12 44.8679 19.04 44.5399 18.88C44.2119 18.72 43.9479 18.504 43.7479 18.232C43.5479 17.96 43.4479 17.652 43.4479 17.308C43.4479 16.756 43.6719 16.316 44.1199 15.988C44.5679 15.66 45.1519 15.444 45.8719 15.34L47.6599 15.088V14.74C47.6599 14.356 47.5479 14.056 47.3239 13.84C47.1079 13.624 46.7519 13.516 46.2559 13.516C45.9919 13.516 45.7679 13.556 45.5839 13.636C45.4079 13.716 45.2639 13.812 45.1519 13.924C45.0399 14.036 44.9519 14.148 44.8879 14.26C44.8559 14.332 44.8199 14.384 44.7799 14.416C44.7479 14.448 44.7039 14.464 44.6479 14.464H44.1319C44.0599 14.464 43.9959 14.44 43.9399 14.392C43.8919 14.336 43.8679 14.272 43.8679 14.2C43.8679 14.08 43.9119 13.932 43.9999 13.756C44.0959 13.58 44.2399 13.408 44.4319 13.24C44.6239 13.072 44.8679 12.932 45.1639 12.82C45.4679 12.7 45.8359 12.64 46.2679 12.64C46.7479 12.64 47.1519 12.704 47.4799 12.832C47.8079 12.952 48.0639 13.116 48.2479 13.324C48.4399 13.532 48.5759 13.768 48.6559 14.032C48.7439 14.296 48.7879 14.564 48.7879 14.836V18.724C48.7879 18.804 48.7599 18.872 48.7039 18.928C48.6559 18.976 48.5919 19 48.5119 19H47.9599C47.8719 19 47.8039 18.976 47.7559 18.928C47.7079 18.872 47.6839 18.804 47.6839 18.724V18.208C47.5799 18.352 47.4399 18.496 47.2639 18.64C47.0879 18.776 46.8679 18.892 46.6039 18.988C46.3399 19.076 46.0159 19.12 45.6319 19.12ZM45.8839 18.22C46.2119 18.22 46.5119 18.152 46.7839 18.016C47.0559 17.872 47.2679 17.652 47.4199 17.356C47.5799 17.06 47.6599 16.688 47.6599 16.24V15.904L46.2679 16.108C45.6999 16.188 45.2719 16.324 44.9839 16.516C44.6959 16.7 44.5519 16.936 44.5519 17.224C44.5519 17.448 44.6159 17.636 44.7439 17.788C44.8799 17.932 45.0479 18.04 45.2479 18.112C45.4559 18.184 45.6679 18.22 45.8839 18.22ZM50.789 19C50.709 19 50.641 18.976 50.585 18.928C50.537 18.872 50.513 18.804 50.513 18.724V13.036C50.513 12.956 50.537 12.892 50.585 12.844C50.641 12.788 50.709 12.76 50.789 12.76H55.553C55.633 12.76 55.697 12.788 55.745 12.844C55.801 12.892 55.829 12.956 55.829 13.036V18.724C55.829 18.804 55.801 18.872 55.745 18.928C55.697 18.976 55.633 19 55.553 19H54.977C54.897 19 54.833 18.976 54.785 18.928C54.737 18.872 54.713 18.804 54.713 18.724V13.72H51.641V18.724C51.641 18.804 51.613 18.872 51.557 18.928C51.509 18.976 51.445 19 51.365 19H50.789ZM57.8786 19C57.8066 19 57.7426 18.976 57.6866 18.928C57.6386 18.872 57.6146 18.812 57.6146 18.748V13.036C57.6146 12.956 57.6386 12.892 57.6866 12.844C57.7426 12.788 57.8106 12.76 57.8906 12.76H58.4666C58.5466 12.76 58.6106 12.788 58.6586 12.844C58.7146 12.892 58.7426 12.956 58.7426 13.036V18.124L58.4186 17.8L62.0546 12.94C62.0946 12.892 62.1386 12.852 62.1866 12.82C62.2346 12.78 62.2946 12.76 62.3666 12.76H62.9186C62.9826 12.76 63.0386 12.784 63.0866 12.832C63.1426 12.88 63.1706 12.936 63.1706 13V18.724C63.1706 18.804 63.1426 18.872 63.0866 18.928C63.0386 18.976 62.9746 19 62.8946 19H62.3306C62.2426 19 62.1746 18.976 62.1266 18.928C62.0786 18.872 62.0546 18.804 62.0546 18.724V13.936L62.3906 13.924L58.7306 18.82C58.6986 18.86 58.6586 18.9 58.6106 18.94C58.5626 18.98 58.4986 19 58.4186 19H57.8786ZM65.2031 19C65.1231 19 65.0551 18.976 64.9991 18.928C64.9511 18.872 64.9271 18.804 64.9271 18.724V13.036C64.9271 12.956 64.9511 12.892 64.9991 12.844C65.0551 12.788 65.1231 12.76 65.2031 12.76H65.7551C65.8351 12.76 65.8991 12.788 65.9471 12.844C66.0031 12.892 66.0311 12.956 66.0311 13.036V18.04H68.2271V13.036C68.2271 12.956 68.2511 12.892 68.2991 12.844C68.3551 12.788 68.4231 12.76 68.5031 12.76H69.0071C69.0951 12.76 69.1631 12.788 69.2111 12.844C69.2591 12.892 69.2831 12.956 69.2831 13.036V18.04H71.4791V13.036C71.4791 12.956 71.5031 12.892 71.5511 12.844C71.6071 12.788 71.6751 12.76 71.7551 12.76H72.3071C72.3871 12.76 72.4511 12.788 72.4991 12.844C72.5551 12.892 72.5831 12.956 72.5831 13.036V18.724C72.5831 18.804 72.5551 18.872 72.4991 18.928C72.4511 18.976 72.3871 19 72.3071 19H65.2031ZM74.6364 19C74.5644 19 74.5004 18.976 74.4444 18.928C74.3964 18.872 74.3724 18.812 74.3724 18.748V13.036C74.3724 12.956 74.3964 12.892 74.4444 12.844C74.5004 12.788 74.5684 12.76 74.6484 12.76H75.2244C75.3044 12.76 75.3684 12.788 75.4164 12.844C75.4724 12.892 75.5004 12.956 75.5004 13.036V18.124L75.1764 17.8L78.8124 12.94C78.8524 12.892 78.8964 12.852 78.9444 12.82C78.9924 12.78 79.0524 12.76 79.1244 12.76H79.6764C79.7404 12.76 79.7964 12.784 79.8444 12.832C79.9004 12.88 79.9284 12.936 79.9284 13V18.724C79.9284 18.804 79.9004 18.872 79.8444 18.928C79.7964 18.976 79.7324 19 79.6524 19H79.0884C79.0004 19 78.9324 18.976 78.8844 18.928C78.8364 18.872 78.8124 18.804 78.8124 18.724V13.936L79.1484 13.924L75.4884 18.82C75.4564 18.86 75.4164 18.9 75.3684 18.94C75.3204 18.98 75.2564 19 75.1764 19H74.6364ZM83.5929 19C83.5129 19 83.4449 18.976 83.3889 18.928C83.3409 18.872 83.3169 18.804 83.3169 18.724V13.72H81.2289C81.1489 13.72 81.0809 13.696 81.0249 13.648C80.9769 13.592 80.9529 13.524 80.9529 13.444V13.036C80.9529 12.956 80.9769 12.892 81.0249 12.844C81.0809 12.788 81.1489 12.76 81.2289 12.76H86.5089C86.5889 12.76 86.6529 12.788 86.7009 12.844C86.7569 12.892 86.7849 12.956 86.7849 13.036V13.444C86.7849 13.524 86.7569 13.592 86.7009 13.648C86.6529 13.696 86.5889 13.72 86.5089 13.72H84.4209V18.724C84.4209 18.804 84.3969 18.872 84.3489 18.928C84.3009 18.976 84.2369 19 84.1569 19H83.5929ZM90.3215 19.12C89.4895 19.12 88.8295 18.868 88.3415 18.364C87.8535 17.852 87.5855 17.156 87.5375 16.276C87.5295 16.172 87.5255 16.04 87.5255 15.88C87.5255 15.712 87.5295 15.576 87.5375 15.472C87.5695 14.904 87.7015 14.408 87.9335 13.984C88.1655 13.552 88.4815 13.22 88.8815 12.988C89.2895 12.756 89.7655 12.64 90.3095 12.64C90.9175 12.64 91.4255 12.768 91.8335 13.024C92.2495 13.28 92.5655 13.644 92.7815 14.116C92.9975 14.588 93.1055 15.14 93.1055 15.772V15.976C93.1055 16.064 93.0775 16.132 93.0215 16.18C92.9735 16.228 92.9095 16.252 92.8295 16.252H88.6775C88.6775 16.26 88.6775 16.276 88.6775 16.3C88.6775 16.324 88.6775 16.344 88.6775 16.36C88.6935 16.688 88.7655 16.996 88.8935 17.284C89.0215 17.564 89.2055 17.792 89.4455 17.968C89.6935 18.144 89.9815 18.232 90.3095 18.232C90.5975 18.232 90.8375 18.188 91.0295 18.1C91.2215 18.012 91.3775 17.916 91.4975 17.812C91.6175 17.7 91.6975 17.612 91.7375 17.548C91.8095 17.452 91.8655 17.396 91.9055 17.38C91.9455 17.356 92.0095 17.344 92.0975 17.344H92.6855C92.7575 17.344 92.8175 17.368 92.8655 17.416C92.9215 17.456 92.9455 17.516 92.9375 17.596C92.9295 17.716 92.8655 17.864 92.7455 18.04C92.6255 18.208 92.4535 18.376 92.2295 18.544C92.0135 18.712 91.7415 18.852 91.4135 18.964C91.0935 19.068 90.7295 19.12 90.3215 19.12ZM88.6775 15.424H91.9655V15.388C91.9655 15.028 91.8975 14.708 91.7615 14.428C91.6335 14.148 91.4455 13.928 91.1975 13.768C90.9495 13.6 90.6535 13.516 90.3095 13.516C89.9655 13.516 89.6695 13.6 89.4215 13.768C89.1815 13.928 88.9975 14.148 88.8695 14.428C88.7415 14.708 88.6775 15.028 88.6775 15.388V15.424ZM97.7578 19C97.6778 19 97.6098 18.976 97.5538 18.928C97.5058 18.872 97.4818 18.804 97.4818 18.724V13.036C97.4818 12.956 97.5058 12.892 97.5538 12.844C97.6098 12.788 97.6778 12.76 97.7578 12.76H98.3338C98.4138 12.76 98.4778 12.788 98.5258 12.844C98.5818 12.892 98.6098 12.956 98.6098 13.036V15.34H101.874V13.036C101.874 12.956 101.898 12.892 101.946 12.844C102.002 12.788 102.07 12.76 102.15 12.76H102.714C102.794 12.76 102.858 12.788 102.906 12.844C102.962 12.892 102.99 12.956 102.99 13.036V18.724C102.99 18.804 102.962 18.872 102.906 18.928C102.858 18.976 102.794 19 102.714 19H102.15C102.07 19 102.002 18.976 101.946 18.928C101.898 18.872 101.874 18.804 101.874 18.724V16.3H98.6098V18.724C98.6098 18.804 98.5818 18.872 98.5258 18.928C98.4778 18.976 98.4138 19 98.3338 19H97.7578ZM106.534 19.12C106.134 19.12 105.77 19.04 105.442 18.88C105.114 18.72 104.85 18.504 104.65 18.232C104.45 17.96 104.35 17.652 104.35 17.308C104.35 16.756 104.574 16.316 105.022 15.988C105.47 15.66 106.054 15.444 106.774 15.34L108.562 15.088V14.74C108.562 14.356 108.45 14.056 108.226 13.84C108.01 13.624 107.654 13.516 107.158 13.516C106.894 13.516 106.67 13.556 106.486 13.636C106.31 13.716 106.166 13.812 106.054 13.924C105.942 14.036 105.854 14.148 105.79 14.26C105.758 14.332 105.722 14.384 105.682 14.416C105.65 14.448 105.606 14.464 105.55 14.464H105.034C104.962 14.464 104.898 14.44 104.842 14.392C104.794 14.336 104.77 14.272 104.77 14.2C104.77 14.08 104.814 13.932 104.902 13.756C104.998 13.58 105.142 13.408 105.334 13.24C105.526 13.072 105.77 12.932 106.066 12.82C106.37 12.7 106.738 12.64 107.17 12.64C107.65 12.64 108.054 12.704 108.382 12.832C108.71 12.952 108.966 13.116 109.15 13.324C109.342 13.532 109.478 13.768 109.558 14.032C109.646 14.296 109.69 14.564 109.69 14.836V18.724C109.69 18.804 109.662 18.872 109.606 18.928C109.558 18.976 109.494 19 109.414 19H108.862C108.774 19 108.706 18.976 108.658 18.928C108.61 18.872 108.586 18.804 108.586 18.724V18.208C108.482 18.352 108.342 18.496 108.166 18.64C107.99 18.776 107.77 18.892 107.506 18.988C107.242 19.076 106.918 19.12 106.534 19.12ZM106.786 18.22C107.114 18.22 107.414 18.152 107.686 18.016C107.958 17.872 108.17 17.652 108.322 17.356C108.482 17.06 108.562 16.688 108.562 16.24V15.904L107.17 16.108C106.602 16.188 106.174 16.324 105.886 16.516C105.598 16.7 105.454 16.936 105.454 17.224C105.454 17.448 105.518 17.636 105.646 17.788C105.782 17.932 105.95 18.04 106.15 18.112C106.358 18.184 106.57 18.22 106.786 18.22ZM111.679 19C111.599 19 111.535 18.976 111.487 18.928C111.439 18.88 111.415 18.816 111.415 18.736V12.988C111.415 12.924 111.439 12.872 111.487 12.832C111.543 12.784 111.599 12.76 111.655 12.76H112.267C112.395 12.76 112.495 12.824 112.567 12.952L114.607 16.768L116.659 12.952C116.731 12.824 116.831 12.76 116.959 12.76H117.559C117.623 12.76 117.679 12.784 117.727 12.832C117.775 12.872 117.799 12.924 117.799 12.988V18.736C117.799 18.816 117.775 18.88 117.727 18.928C117.679 18.976 117.619 19 117.547 19H116.959C116.879 19 116.815 18.976 116.767 18.928C116.719 18.88 116.695 18.816 116.695 18.736V13.948L117.115 13.996L115.159 17.692C115.119 17.772 115.071 17.844 115.015 17.908C114.959 17.972 114.875 18.004 114.763 18.004H114.451C114.347 18.004 114.267 17.972 114.211 17.908C114.155 17.844 114.103 17.772 114.055 17.692L112.159 14.176L112.531 14.14V18.736C112.531 18.816 112.507 18.88 112.459 18.928C112.411 18.976 112.347 19 112.267 19H111.679ZM122.812 19C122.732 19 122.664 18.976 122.608 18.928C122.56 18.872 122.536 18.804 122.536 18.724V13.036C122.536 12.956 122.56 12.892 122.608 12.844C122.664 12.788 122.732 12.76 122.812 12.76H125.308C126.06 12.76 126.624 12.912 127 13.216C127.384 13.52 127.576 13.928 127.576 14.44C127.576 14.8 127.508 15.072 127.372 15.256C127.236 15.44 127.044 15.596 126.796 15.724C127.1 15.852 127.328 16.06 127.48 16.348C127.64 16.628 127.72 16.92 127.72 17.224C127.72 17.8 127.516 18.24 127.108 18.544C126.708 18.848 126.14 19 125.404 19H122.812ZM123.64 18.124H125.308C125.692 18.124 126 18.052 126.232 17.908C126.472 17.756 126.592 17.528 126.592 17.224C126.592 16.904 126.484 16.672 126.268 16.528C126.052 16.376 125.732 16.3 125.308 16.3H123.64V18.124ZM123.64 15.412H125.236C125.62 15.412 125.924 15.328 126.148 15.16C126.38 14.992 126.496 14.756 126.496 14.452C126.496 14.14 126.38 13.928 126.148 13.816C125.924 13.696 125.62 13.636 125.236 13.636H123.64V15.412ZM133.776 19C133.672 19 133.588 18.972 133.524 18.916C133.468 18.86 133.428 18.78 133.404 18.676L131.856 10.972C131.848 10.94 131.844 10.912 131.844 10.888C131.844 10.864 131.844 10.848 131.844 10.84C131.844 10.776 131.868 10.72 131.916 10.672C131.964 10.624 132.02 10.6 132.084 10.6H132.708C132.876 10.6 132.972 10.668 132.996 10.804L134.22 16.996L135.516 12.748C135.54 12.676 135.58 12.612 135.636 12.556C135.7 12.492 135.788 12.46 135.9 12.46H136.344C136.464 12.46 136.552 12.492 136.608 12.556C136.664 12.612 136.7 12.676 136.716 12.748L138.024 16.996L139.236 10.804C139.26 10.668 139.36 10.6 139.536 10.6H140.16C140.224 10.6 140.28 10.624 140.328 10.672C140.376 10.72 140.4 10.776 140.4 10.84C140.4 10.848 140.396 10.864 140.388 10.888C140.388 10.912 140.388 10.94 140.388 10.972L138.84 18.676C138.816 18.78 138.772 18.86 138.708 18.916C138.652 18.972 138.572 19 138.468 19H138C137.888 19 137.8 18.972 137.736 18.916C137.672 18.86 137.628 18.788 137.604 18.7L136.116 14.128L134.64 18.7C134.608 18.788 134.56 18.86 134.496 18.916C134.44 18.972 134.356 19 134.244 19H133.776ZM142.102 19C142.022 19 141.954 18.976 141.898 18.928C141.85 18.872 141.826 18.804 141.826 18.724V10.756C141.826 10.676 141.85 10.612 141.898 10.564C141.954 10.508 142.022 10.48 142.102 10.48H142.702C142.79 10.48 142.858 10.508 142.906 10.564C142.954 10.612 142.978 10.676 142.978 10.756V13.552C143.194 13.28 143.458 13.06 143.77 12.892C144.082 12.724 144.478 12.64 144.958 12.64C145.478 12.64 145.918 12.756 146.278 12.988C146.646 13.212 146.922 13.528 147.106 13.936C147.298 14.336 147.394 14.804 147.394 15.34V18.724C147.394 18.804 147.37 18.872 147.322 18.928C147.274 18.976 147.206 19 147.118 19H146.518C146.438 19 146.37 18.976 146.314 18.928C146.266 18.872 146.242 18.804 146.242 18.724V15.4C146.242 14.84 146.106 14.404 145.834 14.092C145.562 13.772 145.162 13.612 144.634 13.612C144.138 13.612 143.738 13.772 143.434 14.092C143.13 14.404 142.978 14.84 142.978 15.4V18.724C142.978 18.804 142.954 18.872 142.906 18.928C142.858 18.976 142.79 19 142.702 19H142.102ZM150.866 19.12C150.466 19.12 150.102 19.04 149.774 18.88C149.446 18.72 149.182 18.504 148.982 18.232C148.782 17.96 148.682 17.652 148.682 17.308C148.682 16.756 148.906 16.316 149.354 15.988C149.802 15.66 150.386 15.444 151.106 15.34L152.894 15.088V14.74C152.894 14.356 152.782 14.056 152.558 13.84C152.342 13.624 151.986 13.516 151.49 13.516C151.226 13.516 151.002 13.556 150.818 13.636C150.642 13.716 150.498 13.812 150.386 13.924C150.274 14.036 150.186 14.148 150.122 14.26C150.09 14.332 150.054 14.384 150.014 14.416C149.982 14.448 149.938 14.464 149.882 14.464H149.366C149.294 14.464 149.23 14.44 149.174 14.392C149.126 14.336 149.102 14.272 149.102 14.2C149.102 14.08 149.146 13.932 149.234 13.756C149.33 13.58 149.474 13.408 149.666 13.24C149.858 13.072 150.102 12.932 150.398 12.82C150.702 12.7 151.07 12.64 151.502 12.64C151.982 12.64 152.386 12.704 152.714 12.832C153.042 12.952 153.298 13.116 153.482 13.324C153.674 13.532 153.81 13.768 153.89 14.032C153.978 14.296 154.022 14.564 154.022 14.836V18.724C154.022 18.804 153.994 18.872 153.938 18.928C153.89 18.976 153.826 19 153.746 19H153.194C153.106 19 153.038 18.976 152.99 18.928C152.942 18.872 152.918 18.804 152.918 18.724V18.208C152.814 18.352 152.674 18.496 152.498 18.64C152.322 18.776 152.102 18.892 151.838 18.988C151.574 19.076 151.25 19.12 150.866 19.12ZM151.118 18.22C151.446 18.22 151.746 18.152 152.018 18.016C152.29 17.872 152.502 17.652 152.654 17.356C152.814 17.06 152.894 16.688 152.894 16.24V15.904L151.502 16.108C150.934 16.188 150.506 16.324 150.218 16.516C149.93 16.7 149.786 16.936 149.786 17.224C149.786 17.448 149.85 17.636 149.978 17.788C150.114 17.932 150.282 18.04 150.482 18.112C150.69 18.184 150.902 18.22 151.118 18.22ZM158.183 19C157.735 19 157.371 18.916 157.091 18.748C156.811 18.572 156.607 18.328 156.479 18.016C156.351 17.696 156.287 17.32 156.287 16.888V13.72H155.351C155.271 13.72 155.203 13.696 155.147 13.648C155.099 13.592 155.075 13.524 155.075 13.444V13.036C155.075 12.956 155.099 12.892 155.147 12.844C155.203 12.788 155.271 12.76 155.351 12.76H156.287V10.756C156.287 10.676 156.311 10.612 156.359 10.564C156.415 10.508 156.483 10.48 156.563 10.48H157.127C157.207 10.48 157.271 10.508 157.319 10.564C157.375 10.612 157.403 10.676 157.403 10.756V12.76H158.891C158.979 12.76 159.047 12.788 159.095 12.844C159.143 12.892 159.167 12.956 159.167 13.036V13.444C159.167 13.524 159.143 13.592 159.095 13.648C159.047 13.696 158.979 13.72 158.891 13.72H157.403V16.804C157.403 17.18 157.467 17.476 157.595 17.692C157.723 17.908 157.951 18.016 158.279 18.016H159.011C159.091 18.016 159.155 18.044 159.203 18.1C159.259 18.148 159.287 18.212 159.287 18.292V18.724C159.287 18.804 159.259 18.872 159.203 18.928C159.155 18.976 159.091 19 159.011 19H158.183ZM162.595 19.12C162.147 19.12 161.763 19.064 161.443 18.952C161.123 18.84 160.863 18.704 160.663 18.544C160.463 18.384 160.311 18.224 160.207 18.064C160.111 17.904 160.059 17.776 160.051 17.68C160.043 17.592 160.071 17.524 160.135 17.476C160.199 17.428 160.263 17.404 160.327 17.404H160.867C160.907 17.404 160.939 17.412 160.963 17.428C160.995 17.436 161.035 17.468 161.083 17.524C161.187 17.636 161.303 17.748 161.431 17.86C161.559 17.972 161.715 18.064 161.899 18.136C162.091 18.208 162.327 18.244 162.607 18.244C163.015 18.244 163.351 18.168 163.615 18.016C163.879 17.856 164.011 17.624 164.011 17.32C164.011 17.12 163.955 16.96 163.843 16.84C163.739 16.72 163.547 16.612 163.267 16.516C162.995 16.42 162.619 16.32 162.139 16.216C161.659 16.104 161.279 15.968 160.999 15.808C160.719 15.64 160.519 15.444 160.399 15.22C160.279 14.988 160.219 14.728 160.219 14.44C160.219 14.144 160.307 13.86 160.483 13.588C160.659 13.308 160.915 13.08 161.251 12.904C161.595 12.728 162.023 12.64 162.535 12.64C162.951 12.64 163.307 12.692 163.603 12.796C163.899 12.9 164.143 13.032 164.335 13.192C164.527 13.344 164.671 13.496 164.767 13.648C164.863 13.8 164.915 13.928 164.923 14.032C164.931 14.112 164.907 14.18 164.851 14.236C164.795 14.284 164.731 14.308 164.659 14.308H164.155C164.099 14.308 164.051 14.296 164.011 14.272C163.979 14.248 163.947 14.22 163.915 14.188C163.835 14.084 163.739 13.98 163.627 13.876C163.523 13.772 163.383 13.688 163.207 13.624C163.039 13.552 162.815 13.516 162.535 13.516C162.135 13.516 161.835 13.6 161.635 13.768C161.435 13.936 161.335 14.148 161.335 14.404C161.335 14.556 161.379 14.692 161.467 14.812C161.555 14.932 161.723 15.04 161.971 15.136C162.219 15.232 162.587 15.336 163.075 15.448C163.603 15.552 164.019 15.692 164.323 15.868C164.627 16.044 164.843 16.248 164.971 16.48C165.099 16.712 165.163 16.98 165.163 17.284C165.163 17.62 165.067 17.928 164.875 18.208C164.683 18.488 164.395 18.712 164.011 18.88C163.627 19.04 163.155 19.12 162.595 19.12ZM166.144 19C166.08 19 166.024 18.976 165.976 18.928C165.928 18.88 165.904 18.824 165.904 18.76C165.904 18.72 165.908 18.676 165.916 18.628L168.892 10.864C168.924 10.784 168.968 10.72 169.024 10.672C169.08 10.624 169.164 10.6 169.276 10.6H170.092C170.204 10.6 170.288 10.624 170.344 10.672C170.4 10.72 170.444 10.784 170.476 10.864L173.44 18.628C173.456 18.676 173.464 18.72 173.464 18.76C173.464 18.824 173.44 18.88 173.392 18.928C173.344 18.976 173.288 19 173.224 19H172.612C172.516 19 172.444 18.976 172.396 18.928C172.356 18.88 172.328 18.836 172.312 18.796L171.652 17.092H167.716L167.056 18.796C167.048 18.836 167.02 18.88 166.972 18.928C166.924 18.976 166.852 19 166.756 19H166.144ZM168.064 16.06H171.304L169.684 11.8L168.064 16.06ZM174.879 21.28C174.799 21.28 174.731 21.252 174.675 21.196C174.627 21.148 174.603 21.084 174.603 21.004V13.036C174.603 12.956 174.627 12.892 174.675 12.844C174.731 12.788 174.799 12.76 174.879 12.76H175.431C175.511 12.76 175.575 12.788 175.623 12.844C175.679 12.892 175.707 12.956 175.707 13.036V13.564C175.899 13.3 176.155 13.08 176.475 12.904C176.795 12.728 177.195 12.64 177.675 12.64C178.123 12.64 178.503 12.716 178.815 12.868C179.135 13.02 179.395 13.228 179.595 13.492C179.803 13.756 179.959 14.056 180.063 14.392C180.167 14.728 180.227 15.088 180.243 15.472C180.251 15.6 180.255 15.736 180.255 15.88C180.255 16.024 180.251 16.16 180.243 16.288C180.227 16.664 180.167 17.024 180.063 17.368C179.959 17.704 179.803 18.004 179.595 18.268C179.395 18.524 179.135 18.732 178.815 18.892C178.503 19.044 178.123 19.12 177.675 19.12C177.211 19.12 176.819 19.036 176.499 18.868C176.187 18.692 175.931 18.476 175.731 18.22V21.004C175.731 21.084 175.707 21.148 175.659 21.196C175.611 21.252 175.547 21.28 175.467 21.28H174.879ZM177.423 18.148C177.839 18.148 178.163 18.06 178.395 17.884C178.635 17.7 178.807 17.464 178.911 17.176C179.015 16.88 179.075 16.564 179.091 16.228C179.099 15.996 179.099 15.764 179.091 15.532C179.075 15.196 179.015 14.884 178.911 14.596C178.807 14.3 178.635 14.064 178.395 13.888C178.163 13.704 177.839 13.612 177.423 13.612C177.031 13.612 176.711 13.704 176.463 13.888C176.223 14.072 176.043 14.308 175.923 14.596C175.811 14.876 175.747 15.164 175.731 15.46C175.723 15.588 175.719 15.74 175.719 15.916C175.719 16.092 175.723 16.248 175.731 16.384C175.739 16.664 175.803 16.94 175.923 17.212C176.051 17.484 176.239 17.708 176.487 17.884C176.735 18.06 177.047 18.148 177.423 18.148ZM182.028 21.28C181.948 21.28 181.88 21.252 181.824 21.196C181.776 21.148 181.752 21.084 181.752 21.004V13.036C181.752 12.956 181.776 12.892 181.824 12.844C181.88 12.788 181.948 12.76 182.028 12.76H182.58C182.66 12.76 182.724 12.788 182.772 12.844C182.828 12.892 182.856 12.956 182.856 13.036V13.564C183.048 13.3 183.304 13.08 183.624 12.904C183.944 12.728 184.344 12.64 184.824 12.64C185.272 12.64 185.652 12.716 185.964 12.868C186.284 13.02 186.544 13.228 186.744 13.492C186.952 13.756 187.108 14.056 187.212 14.392C187.316 14.728 187.376 15.088 187.392 15.472C187.4 15.6 187.404 15.736 187.404 15.88C187.404 16.024 187.4 16.16 187.392 16.288C187.376 16.664 187.316 17.024 187.212 17.368C187.108 17.704 186.952 18.004 186.744 18.268C186.544 18.524 186.284 18.732 185.964 18.892C185.652 19.044 185.272 19.12 184.824 19.12C184.36 19.12 183.968 19.036 183.648 18.868C183.336 18.692 183.08 18.476 182.88 18.22V21.004C182.88 21.084 182.856 21.148 182.808 21.196C182.76 21.252 182.696 21.28 182.616 21.28H182.028ZM184.572 18.148C184.988 18.148 185.312 18.06 185.544 17.884C185.784 17.7 185.956 17.464 186.06 17.176C186.164 16.88 186.224 16.564 186.24 16.228C186.248 15.996 186.248 15.764 186.24 15.532C186.224 15.196 186.164 14.884 186.06 14.596C185.956 14.3 185.784 14.064 185.544 13.888C185.312 13.704 184.988 13.612 184.572 13.612C184.18 13.612 183.86 13.704 183.612 13.888C183.372 14.072 183.192 14.308 183.072 14.596C182.96 14.876 182.896 15.164 182.88 15.46C182.872 15.588 182.868 15.74 182.868 15.916C182.868 16.092 182.872 16.248 182.88 16.384C182.888 16.664 182.952 16.94 183.072 17.212C183.2 17.484 183.388 17.708 183.636 17.884C183.884 18.06 184.196 18.148 184.572 18.148Z" fill="black"/>
<path d="M22.0015 9H21.9985C18.6903 9 16 11.691 16 15C16 16.3125 16.423 17.529 17.1423 18.5168L16.3945 20.7458L18.7008 20.0085C19.6495 20.637 20.7812 21 22.0015 21C25.3097 21 28 18.3082 28 15C28 11.6918 25.3097 9 22.0015 9Z" fill="#4CAF50"/>
<path d="M25.4928 17.4726C25.348 17.8814 24.7735 18.2204 24.3153 18.3194C24.0018 18.3861 23.5923 18.4394 22.2138 17.8679C20.4505 17.1374 19.315 15.3456 19.2265 15.2294C19.1418 15.1131 18.514 14.2806 18.514 13.4196C18.514 12.5586 18.9513 12.1394 19.1275 11.9594C19.2723 11.8116 19.5115 11.7441 19.741 11.7441C19.8153 11.7441 19.882 11.7479 19.942 11.7509C20.1183 11.7584 20.2068 11.7689 20.323 12.0471C20.4678 12.3959 20.8203 13.2569 20.8623 13.3454C20.905 13.4339 20.9478 13.5539 20.8878 13.6701C20.8315 13.7901 20.782 13.8434 20.6935 13.9454C20.605 14.0474 20.521 14.1254 20.4325 14.2349C20.3515 14.3301 20.26 14.4321 20.362 14.6084C20.464 14.7809 20.8165 15.3561 21.3355 15.8181C22.0053 16.4144 22.5483 16.6049 22.7425 16.6859C22.8873 16.7459 23.0598 16.7316 23.1655 16.6191C23.2998 16.4744 23.4655 16.2344 23.6343 15.9981C23.7543 15.8286 23.9058 15.8076 24.0648 15.8676C24.2268 15.9239 25.084 16.3476 25.2603 16.4354C25.4365 16.5239 25.5528 16.5659 25.5955 16.6401C25.6375 16.7144 25.6375 17.0631 25.4928 17.4726Z" fill="#FAFAFA"/>
</svg>
